<?xml version="1.0" encoding="UTF-8" standalone="no"?>
<svg
   xmlns:dc="http://purl.org/dc/elements/1.1/"
   xmlns:cc="http://creativecommons.org/ns#"
   xmlns:rdf="http://www.w3.org/1999/02/22-rdf-syntax-ns#"
   xmlns:svg="http://www.w3.org/2000/svg"
   xmlns="http://www.w3.org/2000/svg"
   xmlns:sodipodi="http://sodipodi.sourceforge.net/DTD/sodipodi-0.dtd"
   xmlns:inkscape="http://www.inkscape.org/namespaces/inkscape"
   width="14"
   height="14"
   version="1.1"
   id="svg4"
   sodipodi:docname="settings.svg"
   inkscape:version="0.92.2 (5c3e80d, 2017-08-06)">
  <metadata
     id="metadata10">
    <rdf:RDF>
      <cc:Work
         rdf:about="">
        <dc:format>image/svg+xml</dc:format>
        <dc:type
           rdf:resource="http://purl.org/dc/dcmitype/StillImage" />
      </cc:Work>
    </rdf:RDF>
  </metadata>
  <defs
     id="defs8" />
  <sodipodi:namedview
     pagecolor="#ffffff"
     bordercolor="#666666"
     borderopacity="1"
     objecttolerance="10"
     gridtolerance="10"
     guidetolerance="10"
     inkscape:pageopacity="0"
     inkscape:pageshadow="2"
     inkscape:window-width="716"
     inkscape:window-height="480"
     id="namedview6"
     showgrid="false"
     inkscape:zoom="16.857143"
     inkscape:cx="7"
     inkscape:cy="7"
     inkscape:window-x="0"
     inkscape:window-y="0"
     inkscape:window-maximized="0"
     inkscape:current-layer="svg4" />
  <path
     fill="#808080"
     d="m14 8.3v-2.57l-1.58-.264c-.117-.44-.292-.848-.496-1.2l.93-1.285-1.81-1.84-1.31.908c-.371-.205-.781-.380-1.187-.497l-.259-1.552h-2.568l-.263 1.578c-.437.117-.816.293-1.196.497l-1.282-.905-1.838 1.81.934 1.287c-.2.38-.376.79-.493 1.228l-1.578.235v2.57l1.575.264c.117.438.292.818.496 1.198l-.93 1.315 1.809 1.813 1.312-.938c.38.205.787.38 1.224.497l.260 1.55h2.566l.263-1.58c.408-.117.817-.293 1.196-.497l1.315.935 1.81-1.812-.935-1.315c.203-.38.38-.76.495-1.2l1.54-.225zm-7 1.404c-1.488 0-2.683-1.2-2.683-2.69s1.225-2.687 2.683-2.687 2.683 1.198 2.683 2.69c0 1.49-1.195 2.688-2.683 2.688z"
     id="path2"
     style="fill:#a8b9ba;fill-opacity:1" />
</svg>
