<?xml version="1.0" encoding="UTF-8" standalone="no"?>
<svg
   xmlns:dc="http://purl.org/dc/elements/1.1/"
   xmlns:cc="http://creativecommons.org/ns#"
   xmlns:rdf="http://www.w3.org/1999/02/22-rdf-syntax-ns#"
   xmlns:svg="http://www.w3.org/2000/svg"
   xmlns="http://www.w3.org/2000/svg"
   xmlns:sodipodi="http://sodipodi.sourceforge.net/DTD/sodipodi-0.dtd"
   xmlns:inkscape="http://www.inkscape.org/namespaces/inkscape"
   width="17.966103"
   height="16.338984"
   viewBox="0 0 17.966103 16.338984"
   version="1.1"
   id="svg5724"
   sodipodi:docname="git-merge.svg"
   inkscape:version="0.92.3 (2405546, 2018-03-11)">
  <metadata
     id="metadata5730">
    <rdf:RDF>
      <cc:Work
         rdf:about="">
        <dc:format>image/svg+xml</dc:format>
        <dc:type
           rdf:resource="http://purl.org/dc/dcmitype/StillImage" />
      </cc:Work>
    </rdf:RDF>
  </metadata>
  <defs
     id="defs5728" />
  <sodipodi:namedview
     pagecolor="#ffffff"
     bordercolor="#666666"
     borderopacity="1"
     objecttolerance="10"
     gridtolerance="10"
     guidetolerance="10"
     inkscape:pageopacity="0"
     inkscape:pageshadow="2"
     inkscape:window-width="1028"
     inkscape:window-height="499"
     id="namedview5726"
     showgrid="false"
     inkscape:zoom="14.75"
     inkscape:cx="10.474576"
     inkscape:cy="8.3389835"
     inkscape:window-x="1080"
     inkscape:window-y="746"
     inkscape:window-maximized="0"
     inkscape:current-layer="svg5724" />
  <ellipse
     style="fill:#f9f9f9;fill-opacity:1;stroke:none;stroke-width:45.35433197;stroke-linecap:round;stroke-linejoin:round;stroke-miterlimit:4;stroke-dasharray:none;stroke-opacity:1"
     id="path6275"
     cx="8.9830513"
     cy="8.1694918"
     rx="8.9830513"
     ry="8.1694918" />
  <path
     d="m 14.474576,7 c -0.73,0 -1.38,0.41 -1.73,1.02 V 8 c -1.05,-0.02 -2.27,-0.36 -3.1299995,-1.02 -0.75,-0.58 -1.5,-1.61 -1.89,-2.44 a 1.993,1.993 0 0 0 -1.25,-3.55 c -1.11,0 -2,0.9 -2,2.01 a 2,2 0 0 0 1,1.72 v 6.56 c -0.59,0.35 -1,0.99 -1,1.72 0,1.11 0.89,2 2,2 a 1.993,1.993 0 0 0 1,-3.72 V 7.67 c 0.67,0.7 1.44,1.27 2.3,1.69 C 10.634576,9.78 11.804576,9.99 12.744576,10 V 9.98 c 0.36,0.61 1,1.02 1.73,1.02 1.11,0 2,-0.89 2,-2 0,-1.11 -0.89,-2 -2,-2 z m -6.7999995,6 c 0,0.66 -0.55,1.2 -1.2,1.2 -0.65,0 -1.2,-0.55 -1.2,-1.2 0,-0.65 0.55,-1.2 1.2,-1.2 0.65,0 1.2,0.55 1.2,1.2 z m -1.2,-8.8 c -0.66,0 -1.2,-0.55 -1.2,-1.2 0,-0.65 0.55,-1.2 1.2,-1.2 0.65,0 1.2,0.55 1.2,1.2 0,0.65 -0.55,1.2 -1.2,1.2 z m 7.9999995,6 c -0.66,0 -1.2,-0.55 -1.2,-1.2 0,-0.65 0.55,-1.2 1.2,-1.2 0.65,0 1.2,0.55 1.2,1.2 0,0.65 -0.55,1.2 -1.2,1.2 z"
     id="path5722"
     inkscape:connector-curvature="0"
     style="fill-rule:evenodd" />
</svg>
