<?xml version="1.0" encoding="UTF-8" standalone="no"?>
<svg
   xmlns:dc="http://purl.org/dc/elements/1.1/"
   xmlns:cc="http://creativecommons.org/ns#"
   xmlns:rdf="http://www.w3.org/1999/02/22-rdf-syntax-ns#"
   xmlns:svg="http://www.w3.org/2000/svg"
   xmlns="http://www.w3.org/2000/svg"
   xmlns:sodipodi="http://sodipodi.sourceforge.net/DTD/sodipodi-0.dtd"
   xmlns:inkscape="http://www.inkscape.org/namespaces/inkscape"
   width="17.423729"
   height="16"
   viewBox="0 0 17.423729 16"
   version="1.1"
   id="svg870"
   sodipodi:docname="git-commit.svg"
   inkscape:version="0.92.3 (2405546, 2018-03-11)">
  <metadata
     id="metadata876">
    <rdf:RDF>
      <cc:Work
         rdf:about="">
        <dc:format>image/svg+xml</dc:format>
        <dc:type
           rdf:resource="http://purl.org/dc/dcmitype/StillImage" />
      </cc:Work>
    </rdf:RDF>
  </metadata>
  <defs
     id="defs874" />
  <sodipodi:namedview
     pagecolor="#ffffff"
     bordercolor="#666666"
     borderopacity="1"
     objecttolerance="10"
     gridtolerance="10"
     guidetolerance="10"
     inkscape:pageopacity="0"
     inkscape:pageshadow="2"
     inkscape:window-width="1083"
     inkscape:window-height="742"
     id="namedview872"
     showgrid="false"
     inkscape:zoom="14.75"
     inkscape:cx="8.6271181"
     inkscape:cy="8.0677967"
     inkscape:window-x="958"
     inkscape:window-y="577"
     inkscape:window-maximized="0"
     inkscape:current-layer="svg870" />
  <ellipse
     style="fill:#f9f9f9;fill-opacity:1;stroke:none;stroke-width:45.35433197;stroke-linecap:round;stroke-linejoin:round;stroke-miterlimit:4;stroke-dasharray:none;stroke-opacity:1"
     id="path5134"
     ry="8"
     rx="8.7118645"
     cy="8"
     cx="8.7118645" />
  <path
     d="m 12.487118,6.9322033 c -0.45,-1.72 -2,-3 -3.8599999,-3 -1.86,0 -3.41,1.28 -3.86,3 h -3.14 v 2 h 3.14 c 0.45,1.7199997 2,2.9999997 3.86,2.9999997 1.8599999,0 3.4099999,-1.28 3.8599999,-2.9999997 h 3.14 v -2 z M 8.6271181,10.132203 c -1.22,0 -2.2,-0.9799997 -2.2,-2.1999997 0,-1.22 0.98,-2.2 2.2,-2.2 1.22,0 2.1999999,0.98 2.1999999,2.2 0,1.22 -0.9799999,2.1999997 -2.1999999,2.1999997 z"
     id="path868"
     inkscape:connector-curvature="0"
     style="fill-rule:evenodd" />
</svg>
