<?xml version="1.0" encoding="UTF-8" standalone="no"?>
<svg
   xmlns:dc="http://purl.org/dc/elements/1.1/"
   xmlns:cc="http://creativecommons.org/ns#"
   xmlns:rdf="http://www.w3.org/1999/02/22-rdf-syntax-ns#"
   xmlns:svg="http://www.w3.org/2000/svg"
   xmlns="http://www.w3.org/2000/svg"
   xmlns:sodipodi="http://sodipodi.sourceforge.net/DTD/sodipodi-0.dtd"
   xmlns:inkscape="http://www.inkscape.org/namespaces/inkscape"
   width="17.355932"
   height="15.728814"
   viewBox="0 0 17.355932 15.728814"
   version="1.1"
   id="svg5159"
   sodipodi:docname="git-branch.svg"
   inkscape:version="0.92.3 (2405546, 2018-03-11)">
  <metadata
     id="metadata5165">
    <rdf:RDF>
      <cc:Work
         rdf:about="">
        <dc:format>image/svg+xml</dc:format>
        <dc:type
           rdf:resource="http://purl.org/dc/dcmitype/StillImage" />
        <dc:title></dc:title>
      </cc:Work>
    </rdf:RDF>
  </metadata>
  <defs
     id="defs5163" />
  <sodipodi:namedview
     pagecolor="#ffffff"
     bordercolor="#666666"
     borderopacity="1"
     objecttolerance="10"
     gridtolerance="10"
     guidetolerance="10"
     inkscape:pageopacity="0"
     inkscape:pageshadow="2"
     inkscape:window-width="975"
     inkscape:window-height="618"
     id="namedview5161"
     showgrid="false"
     fit-margin-top="0"
     fit-margin-left="0"
     fit-margin-right="0"
     fit-margin-bottom="0"
     inkscape:zoom="14.75"
     inkscape:cx="9.7457628"
     inkscape:cy="7.7966108"
     inkscape:window-x="1077"
     inkscape:window-y="695"
     inkscape:window-maximized="0"
     inkscape:current-layer="svg5159" />
  <ellipse
     style="fill:#f9f9f9;fill-opacity:1;stroke:none;stroke-width:45.35433197;stroke-linecap:round;stroke-linejoin:round;stroke-miterlimit:4;stroke-dasharray:none;stroke-opacity:1"
     id="path5710"
     cx="8.6779661"
     cy="7.8644071"
     rx="8.6779661"
     ry="7.8644071" />
  <path
     d="m 14.745763,4.9322033 c 0,-1.11 -0.89,-2 -2,-2 a 1.993,1.993 0 0 0 -1,3.72 v 0.3 c -0.02,0.52 -0.23,0.98 -0.63,1.38 -0.4,0.4 -0.86,0.61 -1.3800002,0.63 -0.83,0.02 -1.48,0.16 -2,0.45 v -4.76 a 1.993,1.993 0 0 0 -1,-3.72000001 c -1.11,0 -1.99,0.89000001 -1.99,2.00000001 a 2,2 0 0 0 1,1.72 v 6.5600007 c -0.59,0.35 -1,0.99 -1,1.72 0,1.11 0.89,2 2,2 1.11,0 2,-0.89 2,-2 0,-0.53 -0.2,-1 -0.53,-1.36 0.09,-0.06 0.48,-0.41 0.59,-0.47 0.25,-0.11 0.56,-0.17 0.94,-0.17 1.0500002,-0.05 1.9500002,-0.45 2.7500002,-1.2500007 0.8,-0.8 1.2,-1.98 1.25,-3.02 h -0.02 c 0.61,-0.36 1.02,-1 1.02,-1.73 z m -8.0000002,-3.2 c 0.66,0 1.2,0.55 1.2,1.2 0,0.65 -0.55,1.2 -1.2,1.2 -0.65,0 -1.2,-0.55 -1.2,-1.2 0,-0.65 0.55,-1.2 1.2,-1.2 z m 0,12.4100007 c -0.66,0 -1.2,-0.55 -1.2,-1.2 0,-0.65 0.55,-1.2 1.2,-1.2 0.65,0 1.2,0.55 1.2,1.2 0,0.65 -0.55,1.2 -1.2,1.2 z M 12.745763,6.1422033 c -0.66,0 -1.2,-0.55 -1.2,-1.2 0,-0.65 0.55,-1.2 1.2,-1.2 0.65,0 1.2,0.55 1.2,1.2 0,0.65 -0.55,1.2 -1.2,1.2 z"
     id="path5157"
     inkscape:connector-curvature="0"
     style="fill-rule:evenodd" />
</svg>
